classDiagram
  classDef classNode fill:#f6f8fa,stroke:#d0d7de,color:#24292f
  classDef interface fill:#ddf4ff,stroke:#54aeff,color:#0969da
  classDef enum fill:#fff8c5,stroke:#d4a72c,color:#633c01
  classDef struct fill:#f6f8fa,stroke:#d0d7de,color:#24292f
  classDef trait fill:#ddf4ff,stroke:#54aeff,color:#0969da
  classDef abstract_class fill:#fdf4ff,stroke:#d2a8ff,color:#8250df
  classDef function fill:#f6f8fa,stroke:#d0d7de,color:#57606a

  namespace Core_Layer {
    class Vr32 {
      -p108: Ed56
      +async m110(v149: Vw210, v150: Af30, v151: Os146, v152?: Fo143): any
      +static async m111(v184: Array, v185: number, v186?: Ed56): any
      +async m112(v192: Vw210, v193: Af30, v194: Os146, v195?: Fo143): any
      -static async m113(v202: Array, v203: number, v204: any): any
      +constructor(p109: Ik144, v148?: Ed56)
    }
    class Af30 {
      +p100: string
      +p101: string
      +p102: object
    }
    class Pz31 {
      +p19: string
      +p106: string
      +p107: object
    }
    class Hs51 {
      -readonly p116: Vw210
      -readonly p117: Rp99
      -readonly p118: Fo143
      -readonly p119: Lw28
      -readonly p50: boolean
      -p120: Map
      +m99(): string
      -m125(): string
      -m126(): any
      -m127(v298: string): string
      -m128(v301: string, v302: any): object
      -m131(): string
      -m132(): string
      -m133(): string
      -m134(v388: Jw214, v389: number, v390?: boolean): Array
      -m135(v398: Uu216, v399: boolean): string
      -m136(v412: string): string
      -m138(v418: Yf221): string
      -m139(v424: string): boolean
      -m140(v425: Set): Map
      -m141(v430: Array): Array
      -m142(): Array
      -m143(v445: Uu216): boolean
      -m144(v446: Uu216): string
      -m145(v447: string): string
      -m146(v449: string): string
      -m147(v454: string): string
      +m148(v457: number): Array
      -m150(v493: string): string
      +constructor(v277: Vw210, v278: object, v279?: Fo143)
    }
    class Lf52 {
      -readonly p109: Tx104
      +m151(v496: Vw210): Jw85
      -m152(v502: Vw210): any
      -m153(v513: Vw210): Array
      -m154(v522: string): string
      -m155(v526: string): string
      -m156(v534: string): string
      -m157(v537: Array): Array
      -m158(v546: Array): Array
      -m159(v551: Array): Ox87
      +constructor(v495?: Tx104)
    }
    class Jg57 {
      +m160(v633: string): void
      +m161(v634: string): void
      +m162(v635: string): void
      +m163(v636: string): void
      +m164(v637: string): void
    }
    class Ed56 {
      +m160(v628: string): void
      +m161(v629: string): void
      +m162(v630: string): void
      +m163(v631: string): void
      +m164(v632: string): void
    }
    class Pi63 {
      -p171: Array
      -p172: Array
      -p173: Array
      -p175: Map
      -p176: Map
      -p177: Map
      -p178: boolean
      -readonly p179: 3
      -m182(): any
      +m160(): void
      -m183(v646: any, v647: number): void
      +m184(v655: any): any
      -m185(v658: Mr59): void
      -m186(v660: any, v661: Vl60): void
      +async m187(): any
      +constructor(p180: number, p181: Gx58)
    }
    class Gx58 {
      +p123: string
      +p165: number
      +p166: boolean
      +p167?: any
    }
    class Mr59 {
      +p168: string
      +p106: string
    }
    class Vl60 {
      +p168: string
      +p169: boolean
      +p104?: string
      +p170?: string
    }
    class Ym67 {
      -readonly p117: Xp101
      -p188: boolean
      +async m189(v681: string): any
      +async m190(v685: string): any
      +async m191(v688: string, v689: string): any
      +async m192(v692: string, v693: string): any
      +async m193(v711: string, v712: Wc102): any
      -m194(): void
      -m195(): string
      +m196(): Xp101
      +m197(v717: Xp101): void
      -m198(v718: string): string
      +constructor(v680?: Xp101)
    }
    class Lm69 {
      +m184(v721: Jy196, v722: Vw210): string
      -m199(v743: string): string
      -m200(v744: string, v745: number): string
    }
    class Dh70 {
      +p201?: any
    }
    class Og77 {
      +p202: any
      +p203?: string
      +p204: Array
    }
    class Jw85 {
      +p208: Array
      +p209: Ox87
    }
    class Zf86 {
      +p19: string
      +p210: Array
      +p211?: string
    }
    class Ox87 {
      +p212: any
      +p211: string
    }
    class Ei88 {
      +p72: boolean
      +p73: Array
      +p74: Array
    }
    class Nv89 {
      +p5: string
      +p213?: number
      +p214?: number
      +p68?: string
    }
    class Yi90 {
      +p5: string
      +p213?: number
      +p71?: string
    }
    class Ab91 {
      +p72: boolean
      +p215: Array
    }
    class Ci92 {
      +p1: any
      +p5: string
      +p216?: string
      +p217?: any
    }
    class Pg93 {
      +p72: boolean
      +p218: boolean
      +p215: Array
    }
    class Jd94 {
      +p1: any
      +p5: string
      +p70: any
    }
    class Xn95 {
      +p72: boolean
      +p219: number
      +p220: Al96
      +p221: Array
    }
    class Al96 {
      +p222: number
      +p223: number
      +p224: number
      +p225: number
    }
    class If97 {
      +p1: any
      +p5: string
      +p226: any
      +p227?: string
    }
    class Hy98 {
      +p228: Ei88
      +p229: Ab91
      +m184: Pg93
      +p230: Xn95
      +p231: object
    }
    class Rp99 {
      +p121: Io83
      +p122: Jw85
      +p123?: Iz100
      +p114?: boolean
      +p115?: boolean
      +p124?: number
    }
    class Iz100 {
      +p19?: any
      +p234?: any
    }
    class Xp101 {
      +p235: any
      +p123?: Iz100
      +p236?: string
      +p237?: number
      +p238?: number
    }
    class Wc102 {
      +p103: string
      +p104: string
      +p105: string
    }
    class Tx104 {
      +p239: Ln103
      +p240?: number
      +p241?: number
      +p242?: Array
    }
    class Xw105 {
      +p243: RegExp
      +p244: string
      +p245?: number
    }
    class Kc106 {
      +p208: Array
      +p209: Ox87
      +p211: string
    }
    class Gt107 {
      -p77: Cq108
      -p246: Ck111
      -p247: Pt110
      -p248: Vs109
      +async m76(v839: string, v840: Vw210): any
      -m249(v846: object): Hy98
      +async m250(v849: string, v850: Vw210): any
      +m254(): Cq108
      +m255(v856: object): string
      +m256(v863: Hy98): string
      +constructor(v838?: any)
    }
    class Cq108 {
      -p188: boolean
      +async m76(v867: string): any
      -m194(): void
      -m257(v869: unknown): Array
      -m258(v875: string): string
      -m259(v876: string): Array
      +constructor()
    }
    class Vs109 {
      +m76(v884: string, v885: Vw210): Xn95
      -m260(v889: string, v890: Vw210): Al96
      -m261(v891: string, v892: Vw210): number
      -m262(v903: string): string
      -m263(v905: string, v906: Vw210): number
      -m264(v918: string): number
      -m265(v931: string, v932: Vw210): number
      -m266(v940: string, v941: Vw210, v942: Al96): Array
      -m267(v945: Al96): number
      -m268(v946: string, v947: Array, v948: number): number
      -m269(v953: string): number
      -m270(v957: string): string
    }
    class Pt110 {
      -readonly p271: 100
      -readonly p272: 200
      -readonly p124: 10
      +m76(v958: string): Pg93
      -m273(v962: string): Array
      -m274(v968: string): Array
      -m275(v972: string): Array
      -m269(v978: string): number
    }
    class Ck111 {
      +m76(v982: string, v983: Vw210): Ab91
      -m276(v985: string, v986: Vw210): Array
      -m277(v990: string, v991: Vw210): Array
      -m278(v998: Vw210): Array
      -m279(v1008: string, v1009: Vw210): Array
      -m270(v1018: string): string
    }
    class Aj27 {
      +async m78(v44: string, v45: Array): any
      -m79(v50: string): string
      -m80(v53: string): string
      -m81(v60: string): string
      -m82(v67: string): string
      -m83(v74: string): boolean
      -m84(v77: string): string
      -m85(v79: string): string
      -async m86(v82: string, v83: Array): any
      -m87(v86: string, v87: Nv89): string
      -m88(v92: string): string
      -m89(v98: string): string
      +async m90(v100: string): any
      +constructor(p77: Cq108)
    }
    class Lw28 {
      +m93(v103: Fo143): string
      +m94(v106: Fo143): string
      +m95(v111: Fo143): string
      +m96(v116: Fo143): string
      +m97(v120: Fo143): string
      +m98(v123: Fo143): string
    }
    class Pw29 {
      +m99(v133: Vw210): string
    }
  }
  Vr32 *-- Ed56
  Vr32 *-- Ik144
  Vr32 --> Vw210
  Vr32 --> Os146
  Vr32 --> Fo143
  Vr32 --> Ed56
  Hs51 *-- Vw210
  Hs51 *-- Rp99
  Hs51 *-- Fo143
  Hs51 *-- Lw28
  Hs51 --> Jw214
  Hs51 --> Uu216
  Hs51 --> Yf221
  Hs51 --> Zf86
  Lf52 *-- Tx104
  Lf52 --> Jw85
  Lf52 --> Vw210
  Lf52 --> Zf86
  Lf52 --> Ox87
  Ym67 *-- Xp101
  Ym67 --> Wc102
  Ym67 --> Xp101
  Lm69 --> Jy196
  Lm69 --> Vw210
  Gt107 *-- Cq108
  Gt107 *-- Ck111
  Gt107 *-- Pt110
  Gt107 *-- Vs109
  Gt107 --> Hy98
  Gt107 --> Vw210
  Gt107 --> Cq108
  Cq108 --> Ei88
  Cq108 --> Nv89
  Cq108 --> Yi90
  Vs109 --> Xn95
  Vs109 --> Vw210
  Vs109 --> Al96
  Vs109 --> If97
  Pt110 --> Pg93
  Pt110 --> Jd94
  Ck111 --> Ab91
  Ck111 --> Vw210
  Ck111 --> Ci92
  Aj27 *-- Cq108
  Aj27 --> Nv89
  Lw28 --> Fo143
  Pw29 --> Vw210

  %% Node type annotations
  class Vr32:::classNode
  class Af30:::interface
  class Pz31:::interface
  class Hs51:::classNode
  class Lf52:::classNode
  class Jg57:::classNode
  class Ed56:::interface
  class Pi63:::classNode
  class Gx58:::interface
  class Mr59:::interface
  class Vl60:::interface
  class Ym67:::classNode
  class Lm69:::classNode
  class Dh70:::interface
  class Og77:::interface
  class Jw85:::interface
  class Zf86:::interface
  class Ox87:::interface
  class Ei88:::interface
  class Nv89:::interface
  class Yi90:::interface
  class Ab91:::interface
  class Ci92:::interface
  class Pg93:::interface
  class Jd94:::interface
  class Xn95:::interface
  class Al96:::interface
  class If97:::interface
  class Hy98:::interface
  class Rp99:::interface
  class Iz100:::interface
  class Xp101:::interface
  class Wc102:::interface
  class Tx104:::interface
  class Xw105:::interface
  class Kc106:::interface
  class Gt107:::classNode
  class Cq108:::classNode
  class Vs109:::classNode
  class Pt110:::classNode
  class Ck111:::classNode
  class Aj27:::classNode
  class Lw28:::classNode
  class Pw29:::classNode

%% ARCHGUARD-CALLGRAPH-APPENDIX v1 BEGIN
flowchart LR
  cg0["d6/f10.ts#Vr32.constructor"]
  cg1["d6/f19.ts#Jg57.constructor"]
  cg2["d6/f10.ts#Vr32.m110"]
  cg3["d6/f19.ts#Jg57.m160"]
  cg4["d6/f19.ts#Ed56.m160"]
  cg5["d6/f16.ts#Lf52.constructor"]
  cg6["d6/f16.ts#Lf52.m151"]
  cg7["d6/f19.ts#Jg57.m161"]
  cg8["d6/f19.ts#Ed56.m161"]
  cg9["d6/f15.ts#Hs51.constructor"]
  cg10["d6/f15.ts#Hs51.m148"]
  cg11["d6/f15.ts#Hs51.m99"]
  cg12["d6/f26.ts#Gt107.constructor"]
  cg13["d6/f26.ts#Gt107.m250"]
  cg14["d6/f19.ts#Jg57.m162"]
  cg15["d6/f19.ts#Ed56.m162"]
  cg16["d6/f26.ts#Gt107.m255"]
  cg17["d6/f26.ts#Gt107.m254"]
  cg18["d6/f7.ts#Aj27.constructor"]
  cg19["d6/f7.ts#Aj27.m78"]
  cg20["d6/f10.ts#Vr32.m111"]
  cg21["d6/f22.ts#Ym67.constructor"]
  cg22["d6/f22.ts#Ym67.m193"]
  cg23["d6/f10.ts#Vr32.m112"]
  cg24["d6/f10.ts#Vr32"]
  cg25["d6/f10.ts#Vr32.m113"]
  cg26["d6/f12.ts#Is40"]
  cg27["d6/f12.ts#Yy39"]
  cg28["d6/f12.ts#Qo43"]
  cg29["d6/f12.ts#Be42"]
  cg30["d6/f12.ts#Tc44.v241"]
  cg31["d6/f12.ts#Uk38"]
  cg32["d6/f12.ts#Sh37"]
  cg33["d6/f12.ts#Si46"]
  cg34["d6/f12.ts#Sz41"]
  cg35["d6/f14.ts#Rx48"]
  cg36["d6/f11.ts#Rx34"]
  cg37["d6/f8.ts#Lw28.constructor"]
  cg38["d6/f15.ts#Hs51.m125"]
  cg39["d6/f15.ts#Hs51.m133"]
  cg40["d6/f15.ts#Hs51.m132"]
  cg41["d6/f8.ts#Lw28.m97"]
  cg42["d6/f8.ts#Lw28.m98"]
  cg43["d6/f15.ts#Hs51.m150"]
  cg44["d6/f15.ts#Hs51.m126"]
  cg45["d6/f15.ts#Hs51.m131"]
  cg46["d6/f13.ts#Ln47"]
  cg47["d6/f15.ts#Hs51.m145"]
  cg48["d6/f15.ts#Hs51.m136"]
  cg49["d6/f15.ts#Hs51.m141"]
  cg50["d6/f15.ts#Hs51.m127"]
  cg51["d6/f15.ts#Hs51.m128"]
  cg52["d6/f15.ts#Hs51.m131.v323"]
  cg53["d6/f15.ts#Hs51.m140"]
  cg54["d6/f15.ts#Hs51.m134"]
  cg55["d6/f15.ts#Hs51.m139"]
  cg56["d6/f15.ts#Hs51.m138"]
  cg57["d6/f15.ts#Dn50"]
  cg58["d6/f15.ts#Hs51.m143"]
  cg59["d6/f15.ts#Hs51.m135"]
  cg60["d6/f15.ts#Hs51.m144"]
  cg61["d6/f15.ts#Hs51.m146"]
  cg62["d6/f15.ts#Hs51.m138.v419"]
  cg63["d6/f15.ts#Hs51.m147"]
  cg64["d6/f16.ts#Lf52.m152"]
  cg65["d6/f16.ts#Lf52.m153"]
  cg66["d6/f16.ts#Lf52.m157"]
  cg67["d6/f16.ts#Lf52.m158"]
  cg68["d6/f16.ts#Lf52.m159"]
  cg69["d6/f16.ts#Lf52.m154"]
  cg70["d6/f16.ts#Lf52.m155"]
  cg71["d6/f16.ts#Lf52.m156"]
  cg72["d6/f18.ts#Bz55"]
  cg73["d6/f18.ts#Cl53"]
  cg74["d6/f18.ts#Tp54"]
  cg75["d6/f20.ts#Pi63.m182"]
  cg76["d6/f20.ts#Wn62"]
  cg77["d6/f20.ts#Pi63.m186"]
  cg78["d6/f20.ts#Pi63.m183"]
  cg79["d6/f20.ts#Pi63.m160"]
  cg80["d6/f20.ts#Pi63.m184"]
  cg81["d6/f20.ts#Pi63.m185"]
  cg82["d6/f21.ts#Nb65"]
  cg83["d6/f21.ts#(module-top)"]
  cg84["d6/f22.ts#Ym67.m189"]
  cg85["d6/f22.ts#Ym67.m194"]
  cg86["d6/f22.ts#Ym67.m195"]
  cg87["d6/f22.ts#Ym67.m190"]
  cg88["d6/f22.ts#Ym67.m191"]
  cg89["d6/f22.ts#Ym67.m192"]
  cg90["d6/f22.ts#Ym67.m198"]
  cg91["d6/f22.ts#Ym67.m197"]
  cg92["d6/f23.ts#Lm69.m184"]
  cg93["d6/f23.ts#Lm69.m200"]
  cg94["d6/f23.ts#Lm69.m199"]
  cg95["d6/f24.ts#Ah76"]
  cg96["d6/f24.ts#Wh75"]
  cg97["d6/f24.ts#Ak79"]
  cg98["d6/f24.ts#Dx74"]
  cg99["d6/f24.ts#Va81"]
  cg100["d6/f24.ts#Dx78"]
  cg101["d6/f24.ts#Sa72"]
  cg102["d6/f24.ts#Av82"]
  cg103["d6/f24.ts#Ck73"]
  cg104["d6/f27.ts#Cq108.constructor"]
  cg105["d6/f30.ts#Ck111.constructor"]
  cg106["d6/f29.ts#Pt110.constructor"]
  cg107["d6/f28.ts#Vs109.constructor"]
  cg108["d6/f26.ts#Gt107.m76"]
  cg109["d6/f27.ts#Cq108.m76"]
  cg110["d6/f30.ts#Ck111.m76"]
  cg111["d6/f29.ts#Pt110.m76"]
  cg112["d6/f28.ts#Vs109.m76"]
  cg113["d6/f26.ts#Gt107.m249"]
  cg114["d6/f27.ts#Cq108.m194"]
  cg115["d6/f27.ts#Cq108.m259"]
  cg116["d6/f27.ts#Cq108.m257"]
  cg117["d6/f27.ts#Cq108.m258"]
  cg118["d6/f28.ts#Vs109.m260"]
  cg119["d6/f28.ts#Vs109.m266"]
  cg120["d6/f28.ts#Vs109.m267"]
  cg121["d6/f28.ts#Vs109.m261"]
  cg122["d6/f28.ts#Vs109.m263"]
  cg123["d6/f28.ts#Vs109.m264"]
  cg124["d6/f28.ts#Vs109.m265"]
  cg125["d6/f28.ts#Vs109.m269"]
  cg126["d6/f28.ts#Vs109.m268"]
  cg127["d6/f28.ts#Vs109.m270"]
  cg128["d6/f28.ts#Vs109.m262"]
  cg129["d6/f29.ts#Pt110.m273"]
  cg130["d6/f29.ts#Pt110.m274"]
  cg131["d6/f29.ts#Pt110.m275"]
  cg132["d6/f29.ts#Pt110.m269"]
  cg133["d6/f30.ts#Ck111.m276"]
  cg134["d6/f30.ts#Ck111.m277"]
  cg135["d6/f30.ts#Ck111.m278"]
  cg136["d6/f30.ts#Ck111.m279"]
  cg137["d6/f30.ts#Ck111.m270"]
  cg138["d6/f7.ts#Aj27.m79"]
  cg139["d6/f7.ts#Aj27.m80"]
  cg140["d6/f7.ts#Aj27.m81"]
  cg141["d6/f7.ts#Aj27.m82"]
  cg142["d6/f7.ts#Aj27.m84"]
  cg143["d6/f7.ts#Aj27.m85"]
  cg144["d6/f7.ts#Aj27.m86"]
  cg145["d6/f7.ts#Aj27.m83"]
  cg146["d6/f7.ts#Aj27.m87"]
  cg147["d6/f7.ts#Aj27.m88"]
  cg148["d6/f7.ts#Aj27.m89"]
  cg149["d6/f7.ts#Aj27.m90"]
  cg150["d6/f8.ts#Lw28.m93"]
  cg151["d6/f8.ts#Lw28.m95"]
  cg152["d6/f8.ts#Lw28.m94"]
  cg153["d6/f8.ts#Lw28.m96"]
  cg154["d7/f31.ts#Ga112.m280"]
  cg155["d7/f31.ts#Ga112.m281"]
  cg156["d7/f31.ts#Ga112.m282"]
  cg157["d7/f31.ts#Ga112.m283"]
  cg158["d7/f31.ts#Ga112.m287"]
  cg159["d7/f31.ts#Ga112.m285"]
  cg160["d7/f31.ts#Ga112.m284"]
  cg161["d7/f31.ts#Ga112.m286"]
  cg162["d7/f33.ts#Nj114.m289"]
  cg163["d7/f35.ts#Tw116.constructor"]
  cg164["d7/f33.ts#Nj114.m290"]
  cg165["d7/f33.ts#Nj114.m291"]
  cg166["d7/f33.ts#Nj114.m293"]
  cg167["d7/f33.ts#Nj114.m300"]
  cg168["d7/f33.ts#Nj114.m292"]
  cg169["d7/f33.ts#Nj114.m294"]
  cg170["d7/f33.ts#Nj114.m295"]
  cg171["d7/f33.ts#Nj114.m296"]
  cg172["d7/f33.ts#Nj114.m298"]
  cg173["d7/f33.ts#Nj114.m297"]
  cg174["d7/f33.ts#Nj114.m299"]
  cg175["d7/f34.ts#Zf115.m289"]
  cg176["d7/f34.ts#Zf115.m301"]
  cg177["d7/f34.ts#Zf115.m293"]
  cg178["d7/f36.ts#Qz117.m289"]
  cg179["d7/f36.ts#Qz117.m302"]
  cg180["d7/f38.ts#Tr119.m289"]
  cg181["d7/f38.ts#Tr119.m303"]
  cg182["d7/f38.ts#Tr119.m293"]
  cg183["d7/f38.ts#Tr119.m304"]
  cg184["d7/f38.ts#Tr119.m292"]
  cg185["d7/f38.ts#Tr119.m305"]
  cg186["d7/f38.ts#Tr119.m306"]
  cg187["d7/f38.ts#Tr119.m297"]
  cg188["d7/f39.ts#Rh120.m307"]
  cg189["d7/f39.ts#Rh120.m310"]
  cg190["d7/f39.ts#Rh120.m313"]
  cg191["d7/f39.ts#Rh120.m314"]
  cg192["d7/f39.ts#Rh120.m308"]
  cg193["d7/f39.ts#Rh120.m309"]
  cg194["d7/f39.ts#Rh120.m315"]
  cg195["d7/f40.ts#Qu126.m67"]
  cg196["d7/f40.ts#Qu126.m342"]
  cg197["d7/f40.ts#Qu126.m339"]
  cg198["d7/f40.ts#Qu126.m340"]
  cg199["d7/f40.ts#Qu126.m338"]
  cg200["d7/f41.ts#Sq127.m344"]
  cg201["d7/f43.ts#Xd131.constructor"]
  cg202["d7/f43.ts#Xd131.m66"]
  cg203["d7/f40.ts#Qu126.m341"]
  cg204["d7/f42.ts#Wp129"]
  cg205["d7/f42.ts#Vk128"]
  cg206["d7/f42.ts#Ac130.m289"]
  cg207["d7/f42.ts#Ac130.m346"]
  cg208["d7/f42.ts#Ac130.m347"]
  cg209["d7/f42.ts#Ac130.m348"]
  cg210["d7/f42.ts#Ac130.m349"]
  cg211["d7/f42.ts#Ac130.m350"]
  cg212["d7/f42.ts#Ac130.m351"]
  cg213["d7/f42.ts#Ac130.m352"]
  cg214["d7/f42.ts#Ac130.m349.v1355"]
  cg215["d7/f42.ts#Ac130.m353"]
  cg216["d7/f33.ts#Nj114.constructor"]
  cg217["d7/f38.ts#Tr119.constructor"]
  cg218["d7/f34.ts#Zf115.constructor"]
  cg219["d7/f42.ts#Ac130.constructor"]
  cg220["d7/f36.ts#Qz117.constructor"]
  cg221["d7/f43.ts#Xd131.m359"]
  cg222["d7/f43.ts#Xd131.m360"]
  cg223["d7/f43.ts#Xd131.m65"]
  cg224["d7/f43.ts#Xd131.m361"]
  cg225["d7/f43.ts#Xd131.m341"]
  cg0 -->|call| cg1
  cg2 -->|call viaInterface| cg3
  cg2 -->|call viaInterface| cg4
  cg2 -->|call| cg5
  cg2 -->|call| cg6
  cg2 -->|call viaInterface| cg7
  cg2 -->|call viaInterface| cg8
  cg2 -->|call viaInterface| cg3
  cg2 -->|call viaInterface| cg4
  cg2 -->|call| cg9
  cg2 -->|call| cg10
  cg2 -->|call| cg11
  cg2 -->|call viaInterface| cg7
  cg2 -->|call viaInterface| cg8
  cg2 -->|call viaInterface| cg7
  cg2 -->|call viaInterface| cg8
  cg2 -->|call viaInterface| cg3
  cg2 -->|call viaInterface| cg4
  cg2 -->|call| cg12
  cg2 -->|call| cg13
  cg2 -->|call viaInterface| cg14
  cg2 -->|call viaInterface| cg15
  cg2 -->|call| cg16
  cg2 -->|call viaInterface| cg3
  cg2 -->|call viaInterface| cg4
  cg2 -->|call| cg17
  cg2 -->|call| cg18
  cg2 -->|call| cg19
  cg2 -->|call| cg13
  cg2 -->|call viaInterface| cg7
  cg2 -->|call viaInterface| cg8
  cg2 -->|call viaInterface| cg14
  cg2 -->|call viaInterface| cg15
  cg2 -->|call viaInterface| cg7
  cg2 -->|call viaInterface| cg8
  cg2 -->|call viaInterface| cg14
  cg2 -->|call viaInterface| cg15
  cg20 -->|call| cg1
  cg20 -->|call viaInterface| cg3
  cg20 -->|call viaInterface| cg4
  cg20 -->|call| cg21
  cg20 -->|call| cg22
  cg20 -->|call viaInterface| cg7
  cg20 -->|call viaInterface| cg8
  cg20 -->|call viaInterface| cg14
  cg20 -->|call viaInterface| cg15
  cg23 -->|call viaInterface| cg3
  cg23 -->|call viaInterface| cg4
  cg23 -->|call| cg2
  cg23 -->|call viaInterface| cg7
  cg23 -->|call viaInterface| cg8
  cg23 -->|call viaInterface| cg3
  cg23 -->|call viaInterface| cg4
  cg23 -->|reference| cg24
  cg23 -->|call| cg25
  cg23 -->|call viaInterface| cg7
  cg23 -->|call viaInterface| cg8
  cg23 -->|call viaInterface| cg14
  cg23 -->|call viaInterface| cg15
  cg25 -->|call| cg21
  cg25 -->|call| cg22
  cg26 -->|call| cg27
  cg28 -->|call| cg29
  cg28 -->|call| cg26
  cg28 -->|call| cg26
  cg28 -->|call| cg26
  cg30 -->|call| cg31
  cg30 -->|call| cg32
  cg33 -->|call| cg31
  cg33 -->|call| cg32
  cg33 -->|call| cg34
  cg33 -->|call| cg28
  cg35 -->|call| cg36
  cg35 -->|call| cg36
  cg35 -->|call| cg36
  cg35 -->|call| cg36
  cg9 -->|call| cg37
  cg11 -->|call| cg35
  cg11 -->|call| cg38
  cg11 -->|call| cg39
  cg11 -->|call| cg40
  cg11 -->|call| cg41
  cg11 -->|call| cg42
  cg11 -->|call| cg43
  cg38 -->|call| cg44
  cg38 -->|call| cg45
  cg38 -->|call| cg46
  cg38 -->|call| cg47
  cg38 -->|call| cg48
  cg38 -->|call| cg47
  cg38 -->|call| cg49
  cg45 -->|call| cg44
  cg45 -->|call| cg38
  cg45 -->|call| cg50
  cg45 -->|call| cg51
  cg52 -->|call| cg47
  cg45 -->|call| cg47
  cg45 -->|call| cg48
  cg45 -->|call| cg48
  cg40 -->|call| cg46
  cg40 -->|call| cg53
  cg40 -->|call| cg54
  cg40 -->|call| cg47
  cg40 -->|call| cg55
  cg40 -->|call| cg56
  cg40 -->|call| cg54
  cg40 -->|call| cg55
  cg40 -->|call| cg56
  cg40 -->|call| cg47
  cg40 -->|call| cg48
  cg40 -->|call| cg57
  cg39 -->|call| cg46
  cg39 -->|call| cg54
  cg39 -->|call| cg47
  cg39 -->|call| cg54
  cg39 -->|call| cg53
  cg39 -->|call| cg55
  cg39 -->|call| cg56
  cg39 -->|call| cg47
  cg39 -->|call| cg48
  cg39 -->|call| cg57
  cg54 -->|call| cg47
  cg54 -->|call| cg48
  cg54 -->|call| cg58
  cg54 -->|call| cg59
  cg59 -->|call| cg60
  cg59 -->|call| cg61
  cg59 -->|call| cg61
  cg59 -->|call| cg61
  cg62 -->|call| cg47
  cg62 -->|call| cg48
  cg49 -->|call| cg53
  cg49 -->|call| cg55
  cg49 -->|call| cg56
  cg61 -->|call| cg63
  cg10 -->|call| cg46
  cg10 -->|call| cg11
  cg10 -->|call| cg47
  cg10 -->|call| cg54
  cg10 -->|call| cg53
  cg10 -->|call| cg55
  cg10 -->|call| cg56
  cg10 -->|call| cg47
  cg10 -->|call| cg48
  cg10 -->|call| cg57
  cg10 -->|call| cg43
  cg6 -->|call| cg64
  cg6 -->|call| cg65
  cg6 -->|call| cg66
  cg6 -->|call| cg67
  cg6 -->|call| cg68
  cg65 -->|call| cg69
  cg65 -->|call| cg70
  cg65 -->|call| cg71
  cg72 -->|call| cg73
  cg72 -->|call| cg74
  cg75 -->|call| cg76
  cg75 -->|call| cg77
  cg75 -->|call| cg78
  cg79 -->|call| cg75
  cg78 -->|call| cg75
  cg80 -->|call| cg81
  cg82 -->|call| cg72
  cg83 -->|call| cg82
  cg84 -->|call| cg85
  cg84 -->|call| cg86
  cg87 -->|call| cg85
  cg87 -->|call| cg86
  cg88 -->|call| cg84
  cg88 -->|call| cg89
  cg89 -->|call| cg90
  cg22 -->|call| cg84
  cg22 -->|call| cg73
  cg22 -->|call| cg89
  cg91 -->|call| cg85
  cg92 -->|call| cg93
  cg92 -->|call| cg93
  cg92 -->|call| cg94
  cg92 -->|call| cg94
  cg92 -->|call| cg94
  cg92 -->|call| cg94
  cg95 -->|call| cg96
  cg97 -->|call| cg98
  cg97 -->|call| cg98
  cg99 -->|call| cg100
  cg99 -->|call| cg101
  cg99 -->|call| cg99
  cg99 -->|call| cg99
  cg102 -->|call| cg97
  cg102 -->|call| cg95
  cg102 -->|call| cg100
  cg102 -->|call| cg101
  cg102 -->|call| cg99
  cg102 -->|call| cg100
  cg102 -->|call| cg99
  cg102 -->|call| cg101
  cg102 -->|call| cg101
  cg102 -->|call| cg101
  cg102 -->|call| cg103
  cg102 -->|call| cg101
  cg102 -->|call| cg101
  cg102 -->|call| cg103
  cg12 -->|call| cg104
  cg12 -->|call| cg105
  cg12 -->|call| cg106
  cg12 -->|call| cg107
  cg108 -->|call| cg109
  cg108 -->|call| cg110
  cg108 -->|call| cg111
  cg108 -->|call| cg112
  cg108 -->|call| cg113
  cg13 -->|call| cg109
  cg13 -->|call| cg110
  cg13 -->|call| cg111
  cg13 -->|call| cg112
  cg13 -->|call| cg113
  cg109 -->|call| cg114
  cg109 -->|call| cg115
  cg109 -->|call| cg116
  cg116 -->|call| cg117
  cg112 -->|call| cg118
  cg112 -->|call| cg119
  cg112 -->|call| cg120
  cg118 -->|call| cg121
  cg118 -->|call| cg122
  cg118 -->|call| cg123
  cg118 -->|call| cg124
  cg121 -->|call| cg125
  cg121 -->|call| cg126
  cg122 -->|call| cg127
  cg122 -->|call| cg128
  cg122 -->|call| cg128
  cg122 -->|call| cg127
  cg122 -->|call| cg127
  cg111 -->|call| cg129
  cg111 -->|call| cg130
  cg111 -->|call| cg131
  cg130 -->|call| cg132
  cg110 -->|call| cg133
  cg110 -->|call| cg134
  cg110 -->|call| cg135
  cg110 -->|call| cg136
  cg133 -->|call| cg137
  cg19 -->|call| cg138
  cg19 -->|call| cg139
  cg19 -->|call| cg140
  cg19 -->|call| cg141
  cg19 -->|call| cg142
  cg19 -->|call| cg143
  cg19 -->|call| cg109
  cg19 -->|call| cg144
  cg19 -->|call| cg109
  cg141 -->|call| cg145
  cg144 -->|call| cg146
  cg144 -->|call| cg147
  cg144 -->|call| cg148
  cg149 -->|call| cg138
  cg149 -->|call| cg139
  cg149 -->|call| cg140
  cg149 -->|call| cg141
  cg149 -->|call| cg142
  cg149 -->|call| cg143
  cg149 -->|call| cg109
  cg41 -->|call| cg150
  cg41 -->|call| cg151
  cg41 -->|call| cg152
  cg41 -->|call| cg153
  cg154 -->|call| cg155
  cg154 -->|call| cg156
  cg156 -->|call| cg157
  cg156 -->|call| cg158
  cg156 -->|call| cg159
  cg157 -->|call| cg159
  cg160 -->|call| cg161
  cg160 -->|call| cg161
  cg159 -->|call| cg160
  cg158 -->|call| cg159
  cg162 -->|call| cg163
  cg162 -->|call| cg164
  cg164 -->|call| cg165
  cg164 -->|call| cg166
  cg164 -->|call| cg167
  cg164 -->|call| cg168
  cg166 -->|call| cg169
  cg166 -->|call| cg170
  cg166 -->|call| cg171
  cg169 -->|call| cg172
  cg169 -->|call| cg167
  cg170 -->|call| cg172
  cg170 -->|call| cg173
  cg170 -->|call| cg167
  cg171 -->|call| cg174
  cg171 -->|call| cg173
  cg175 -->|call| cg163
  cg175 -->|call| cg176
  cg176 -->|call| cg177
  cg178 -->|call| cg179
  cg178 -->|call| cg179
  cg180 -->|call| cg163
  cg180 -->|call| cg181
  cg181 -->|call| cg182
  cg181 -->|call| cg183
  cg181 -->|call| cg184
  cg182 -->|call| cg185
  cg182 -->|call| cg186
  cg186 -->|call| cg187
  cg188 -->|call| cg189
  cg188 -->|call| cg190
  cg188 -->|call| cg191
  cg188 -->|call| cg192
  cg188 -->|call| cg193
  cg189 -->|call| cg194
  cg189 -->|call| cg194
  cg195 -->|call| cg196
  cg195 -->|call| cg197
  cg195 -->|call| cg196
  cg195 -->|call| cg198
  cg199 -->|call| cg195
  cg197 -->|call| cg196
  cg197 -->|call| cg200
  cg197 -->|call| cg201
  cg197 -->|call| cg202
  cg197 -->|call| cg201
  cg197 -->|call| cg202
  cg198 -->|call| cg196
  cg198 -->|call| cg203
  cg204 -->|call| cg205
  cg206 -->|call| cg207
  cg207 -->|call| cg204
  cg207 -->|call| cg208
  cg207 -->|call| cg209
  cg207 -->|call| cg210
  cg208 -->|call| cg211
  cg208 -->|call| cg211
  cg208 -->|call| cg212
  cg208 -->|call| cg213
  cg208 -->|call| cg211
  cg208 -->|call| cg212
  cg208 -->|call| cg213
  cg208 -->|call| cg211
  cg208 -->|call| cg212
  cg208 -->|call| cg213
  cg208 -->|call| cg211
  cg208 -->|call| cg212
  cg208 -->|call| cg213
  cg208 -->|call| cg211
  cg209 -->|call| cg211
  cg209 -->|call| cg212
  cg209 -->|call| cg213
  cg209 -->|call| cg211
  cg210 -->|call| cg205
  cg214 -->|call| cg211
  cg212 -->|call| cg212
  cg212 -->|call| cg212
  cg212 -->|call| cg212
  cg212 -->|call| cg215
  cg213 -->|call| cg215
  cg201 -->|call| cg216
  cg201 -->|call| cg217
  cg201 -->|call| cg218
  cg201 -->|call| cg219
  cg201 -->|call| cg220
  cg202 -->|call| cg221
  cg202 -->|call| cg181
  cg202 -->|call| cg176
  cg202 -->|call| cg178
  cg202 -->|call| cg207
  cg202 -->|call| cg222
  cg223 -->|call| cg221
  cg223 -->|call| cg181
  cg223 -->|call| cg176
  cg223 -->|call| cg178
  cg223 -->|call| cg221
  cg223 -->|call| cg207
  cg223 -->|call| cg224
  cg223 -->|call| cg225
%% ARCHGUARD-CALLGRAPH-APPENDIX v1 END
