classDiagram
  classDef classNode fill:#f6f8fa,stroke:#d0d7de,color:#24292f
  classDef interface fill:#ddf4ff,stroke:#54aeff,color:#0969da
  classDef enum fill:#fff8c5,stroke:#d4a72c,color:#633c01
  classDef struct fill:#f6f8fa,stroke:#d0d7de,color:#24292f
  classDef trait fill:#ddf4ff,stroke:#54aeff,color:#0969da
  classDef abstract_class fill:#fdf4ff,stroke:#d2a8ff,color:#8250df
  classDef function fill:#f6f8fa,stroke:#d0d7de,color:#57606a

  namespace Core_Layer {
    class Ga112 {
      +m280(v1020: Vw210, v1021: Os146): Vw210
      -m281(v1022: Vw210): Vw210
      -m282(v1025: Vw210): Vw210
      -m283(v1033: Array, v1034?: string, v1035?: Vw210): Array
      -m284(v1040: string, v1041?: string, v1042?: Vw210): string
      -m285(v1051: Jw214, v1052?: string, v1053?: Vw210): string
      -m286(v1055: string, v1056?: Vw210): string
      -m287(v1060: Array, v1061: Array, v1062?: string, v1063?: Vw210): Array
    }
    class Gw113 {
      #readonly p288: any
      +constructor()
    }
    class Nj114 {
      +m289(v1080: string, v1081?: string): Jw214
      -m290(v1084: any, v1085: string): Jw214
      -m291(v1087: any): Pj213
      -m292(v1088: any): Array
      -m293(v1091: any): Array
      -m294(v1096: any): Uu216
      -m295(v1098: any): Uu216
      -m296(v1099: any): Uu216
      -m297(v1100: any): Array
      -m298(v1103: any): Pj213
      -m299(v1107: any): Pj213
      -m300(v1111: Array): Array
    }
    class Zf115 {
      +m289(v1117: string, v1118?: string): Jw214
      +m301(v1121: any, v1122: string): Jw214
      -m293(v1124: any): Array
    }
    class Tw116 {
      +constructor(v1128: string, p27: string, p213?: number, p214?: number)
    }
    class Qz117 {
      +m289(v1129: any, v1130: string): Array
      -m302(v1138: any): Array
    }
    class Tr119 {
      +m289(v1140: string, v1141?: string): Jw214
      +m303(v1144: any, v1145: string): Jw214
      -m304(v1147: any): Array
      -m292(v1150: any): Array
      -m293(v1153: any): Array
      -m305(v1157: any): Uu216
      -m306(v1159: any): Uu216
      -m297(v1160: any): Array
    }
    class Rh120 {
      +m307(v1164: Vw210, v1165: Os146): Si222
      -m308(v1174: Vw210): any
      -m309(v1177: Vw210): number
      -m310(v1180: Vw210): object
      -m313(v1199: Vw210, v1200: Array[]): Array
      -m314(v1213: Vw210, v1214: Array[]): Array
      -m315(v1247: string, v1248: Map, v1249: Set, v1250: Array): void
    }
    class Qu126 {
      -p63: number
      -p316: boolean
      -p335: any
      -p48: string
      -p317: Sq127
      +m336(): number
      +m337(): boolean
      +async m67(v1261: Array): any
      +async m338(v1272: Array): any
      -async m339(v1280: string): any
      -m340(v1284: Array): Vw210
      -m341(v1290: Array): Array
      -m342(v1295?: Array): Vw210
      +constructor(v1260?: Gc121)
    }
    class Gc121 {
      +p63?: number
      +p316?: boolean
      +p48?: string
      +p317?: Sq127
    }
    class Wn122 {
      +p253: Vw210
      +p318: number
      +p319: number
      +p320: number
      +p321: object
    }
    class Bf123 {
      +p326: number
      +p327: number
      +p328: number
    }
    class We124 {
      +p329: string
      +p330: number
      +p331: number
    }
    class Hn125 {
      +p332: number
      +p333: number
      +p334: number
      +p318: number
    }
    class Sq127 {
      -p343: Map
      +m344(v1297: string, v1298: string, v1299: FunctionVw210): Vw210
      +m18(): void
    }
    class Ac130 {
      +m289(v1311: string, v1312?: string): Array
      +m346(v1314: any): Array
      -m347(v1320: any, v1321: Set, v1322?: Set): Array
      -m348(v1338: any, v1339: Set, v1340?: Set): Array
      -m349(v1347: any, v1348: Set, v1349: Set): Array
      -m350(v1366: Array, v1367: Set, v1368: Yf221, v1369: string, v1370: string): void
      -m351(v1372: string): string
      -m352(v1386: string): boolean
      -m353(v1387: string): boolean
    }
    class Xd131 {
      -p288: any
      -p354: Nj114
      -p355: Tr119
      -p356: Zf115
      -p357: Ac130
      -p358: Qz117
      -p48: string
      -m359(v1391: string): string
      +m66(v1392: string, v1393?: string): Vw210
      +m65(v1406: string, v1407?: string, v1408?: any, v1409?: Array): Vw210
      -m360(v1442: Array, v1443: Array, v1444: string): Array
      -m361(v1450: Vw210): Vw210
      -m341(v1457: Array): Array
      +m362(v1462: Vw210, v1463?: boolean): string
      +constructor(v1390?: string)
    }
  }
  Ga112 --> Vw210
  Ga112 --> Os146
  Ga112 --> Jw214
  Ga112 --> Yf221
  Gw113 <|-- Nj114
  Nj114 --> Jw214
  Nj114 --> Pj213
  Nj114 --> Uu216
  Nj114 --> Al217
  Nj114 --> Mb219
  Gw113 <|-- Zf115
  Zf115 --> Jw214
  Zf115 --> Uu216
  Error <|-- Tw116
  Qz117 --> Jw214
  Qz117 --> Uu216
  Gw113 <|-- Tr119
  Tr119 --> Jw214
  Tr119 --> Uu216
  Tr119 --> Al217
  Rh120 --> Si222
  Rh120 --> Vw210
  Rh120 --> Os146
  Rh120 --> Bj220
  Rh120 --> Vm224
  Rh120 --> Cf223
  v21 <|-- Qu126
  Qu126 *-- Sq127
  Qu126 --> Vw210
  Qu126 --> Yf221
  Gc121 *-- Sq127
  Wn122 *-- Vw210
  Sq127 *-- Vw210
  Sq127 --> Vw210
  Gw113 <|-- Ac130
  Ac130 --> Yf221
  Xd131 *-- Nj114
  Xd131 *-- Tr119
  Xd131 *-- Zf115
  Xd131 *-- Ac130
  Xd131 *-- Qz117
  Xd131 --> Vw210
  Xd131 --> Yf221
  Xd131 --> Jw214

  %% Node type annotations
  class Ga112:::classNode
  class Gw113:::classNode
  class Nj114:::classNode
  class Zf115:::classNode
  class Tw116:::classNode
  class Qz117:::classNode
  class Tr119:::classNode
  class Rh120:::classNode
  class Qu126:::classNode
  class Gc121:::interface
  class Wn122:::interface
  class Bf123:::interface
  class We124:::interface
  class Hn125:::interface
  class Sq127:::classNode
  class Ac130:::classNode
  class Xd131:::classNode

%% ARCHGUARD-CALLGRAPH-APPENDIX v1 BEGIN
flowchart LR
  cg0["d6/f10.ts#Vr32.constructor"]
  cg1["d6/f19.ts#Jg57.constructor"]
  cg2["d6/f10.ts#Vr32.m110"]
  cg3["d6/f19.ts#Jg57.m160"]
  cg4["d6/f19.ts#Ed56.m160"]
  cg5["d6/f16.ts#Lf52.constructor"]
  cg6["d6/f16.ts#Lf52.m151"]
  cg7["d6/f19.ts#Jg57.m161"]
  cg8["d6/f19.ts#Ed56.m161"]
  cg9["d6/f15.ts#Hs51.constructor"]
  cg10["d6/f15.ts#Hs51.m148"]
  cg11["d6/f15.ts#Hs51.m99"]
  cg12["d6/f26.ts#Gt107.constructor"]
  cg13["d6/f26.ts#Gt107.m250"]
  cg14["d6/f19.ts#Jg57.m162"]
  cg15["d6/f19.ts#Ed56.m162"]
  cg16["d6/f26.ts#Gt107.m255"]
  cg17["d6/f26.ts#Gt107.m254"]
  cg18["d6/f7.ts#Aj27.constructor"]
  cg19["d6/f7.ts#Aj27.m78"]
  cg20["d6/f10.ts#Vr32.m111"]
  cg21["d6/f22.ts#Ym67.constructor"]
  cg22["d6/f22.ts#Ym67.m193"]
  cg23["d6/f10.ts#Vr32.m112"]
  cg24["d6/f10.ts#Vr32"]
  cg25["d6/f10.ts#Vr32.m113"]
  cg26["d6/f12.ts#Is40"]
  cg27["d6/f12.ts#Yy39"]
  cg28["d6/f12.ts#Qo43"]
  cg29["d6/f12.ts#Be42"]
  cg30["d6/f12.ts#Tc44.v241"]
  cg31["d6/f12.ts#Uk38"]
  cg32["d6/f12.ts#Sh37"]
  cg33["d6/f12.ts#Si46"]
  cg34["d6/f12.ts#Sz41"]
  cg35["d6/f14.ts#Rx48"]
  cg36["d6/f11.ts#Rx34"]
  cg37["d6/f8.ts#Lw28.constructor"]
  cg38["d6/f15.ts#Hs51.m125"]
  cg39["d6/f15.ts#Hs51.m133"]
  cg40["d6/f15.ts#Hs51.m132"]
  cg41["d6/f8.ts#Lw28.m97"]
  cg42["d6/f8.ts#Lw28.m98"]
  cg43["d6/f15.ts#Hs51.m150"]
  cg44["d6/f15.ts#Hs51.m126"]
  cg45["d6/f15.ts#Hs51.m131"]
  cg46["d6/f13.ts#Ln47"]
  cg47["d6/f15.ts#Hs51.m145"]
  cg48["d6/f15.ts#Hs51.m136"]
  cg49["d6/f15.ts#Hs51.m141"]
  cg50["d6/f15.ts#Hs51.m127"]
  cg51["d6/f15.ts#Hs51.m128"]
  cg52["d6/f15.ts#Hs51.m131.v323"]
  cg53["d6/f15.ts#Hs51.m140"]
  cg54["d6/f15.ts#Hs51.m134"]
  cg55["d6/f15.ts#Hs51.m139"]
  cg56["d6/f15.ts#Hs51.m138"]
  cg57["d6/f15.ts#Dn50"]
  cg58["d6/f15.ts#Hs51.m143"]
  cg59["d6/f15.ts#Hs51.m135"]
  cg60["d6/f15.ts#Hs51.m144"]
  cg61["d6/f15.ts#Hs51.m146"]
  cg62["d6/f15.ts#Hs51.m138.v419"]
  cg63["d6/f15.ts#Hs51.m147"]
  cg64["d6/f16.ts#Lf52.m152"]
  cg65["d6/f16.ts#Lf52.m153"]
  cg66["d6/f16.ts#Lf52.m157"]
  cg67["d6/f16.ts#Lf52.m158"]
  cg68["d6/f16.ts#Lf52.m159"]
  cg69["d6/f16.ts#Lf52.m154"]
  cg70["d6/f16.ts#Lf52.m155"]
  cg71["d6/f16.ts#Lf52.m156"]
  cg72["d6/f18.ts#Bz55"]
  cg73["d6/f18.ts#Cl53"]
  cg74["d6/f18.ts#Tp54"]
  cg75["d6/f20.ts#Pi63.m182"]
  cg76["d6/f20.ts#Wn62"]
  cg77["d6/f20.ts#Pi63.m186"]
  cg78["d6/f20.ts#Pi63.m183"]
  cg79["d6/f20.ts#Pi63.m160"]
  cg80["d6/f20.ts#Pi63.m184"]
  cg81["d6/f20.ts#Pi63.m185"]
  cg82["d6/f21.ts#Nb65"]
  cg83["d6/f21.ts#(module-top)"]
  cg84["d6/f22.ts#Ym67.m189"]
  cg85["d6/f22.ts#Ym67.m194"]
  cg86["d6/f22.ts#Ym67.m195"]
  cg87["d6/f22.ts#Ym67.m190"]
  cg88["d6/f22.ts#Ym67.m191"]
  cg89["d6/f22.ts#Ym67.m192"]
  cg90["d6/f22.ts#Ym67.m198"]
  cg91["d6/f22.ts#Ym67.m197"]
  cg92["d6/f23.ts#Lm69.m184"]
  cg93["d6/f23.ts#Lm69.m200"]
  cg94["d6/f23.ts#Lm69.m199"]
  cg95["d6/f24.ts#Ah76"]
  cg96["d6/f24.ts#Wh75"]
  cg97["d6/f24.ts#Ak79"]
  cg98["d6/f24.ts#Dx74"]
  cg99["d6/f24.ts#Va81"]
  cg100["d6/f24.ts#Dx78"]
  cg101["d6/f24.ts#Sa72"]
  cg102["d6/f24.ts#Av82"]
  cg103["d6/f24.ts#Ck73"]
  cg104["d6/f27.ts#Cq108.constructor"]
  cg105["d6/f30.ts#Ck111.constructor"]
  cg106["d6/f29.ts#Pt110.constructor"]
  cg107["d6/f28.ts#Vs109.constructor"]
  cg108["d6/f26.ts#Gt107.m76"]
  cg109["d6/f27.ts#Cq108.m76"]
  cg110["d6/f30.ts#Ck111.m76"]
  cg111["d6/f29.ts#Pt110.m76"]
  cg112["d6/f28.ts#Vs109.m76"]
  cg113["d6/f26.ts#Gt107.m249"]
  cg114["d6/f27.ts#Cq108.m194"]
  cg115["d6/f27.ts#Cq108.m259"]
  cg116["d6/f27.ts#Cq108.m257"]
  cg117["d6/f27.ts#Cq108.m258"]
  cg118["d6/f28.ts#Vs109.m260"]
  cg119["d6/f28.ts#Vs109.m266"]
  cg120["d6/f28.ts#Vs109.m267"]
  cg121["d6/f28.ts#Vs109.m261"]
  cg122["d6/f28.ts#Vs109.m263"]
  cg123["d6/f28.ts#Vs109.m264"]
  cg124["d6/f28.ts#Vs109.m265"]
  cg125["d6/f28.ts#Vs109.m269"]
  cg126["d6/f28.ts#Vs109.m268"]
  cg127["d6/f28.ts#Vs109.m270"]
  cg128["d6/f28.ts#Vs109.m262"]
  cg129["d6/f29.ts#Pt110.m273"]
  cg130["d6/f29.ts#Pt110.m274"]
  cg131["d6/f29.ts#Pt110.m275"]
  cg132["d6/f29.ts#Pt110.m269"]
  cg133["d6/f30.ts#Ck111.m276"]
  cg134["d6/f30.ts#Ck111.m277"]
  cg135["d6/f30.ts#Ck111.m278"]
  cg136["d6/f30.ts#Ck111.m279"]
  cg137["d6/f30.ts#Ck111.m270"]
  cg138["d6/f7.ts#Aj27.m79"]
  cg139["d6/f7.ts#Aj27.m80"]
  cg140["d6/f7.ts#Aj27.m81"]
  cg141["d6/f7.ts#Aj27.m82"]
  cg142["d6/f7.ts#Aj27.m84"]
  cg143["d6/f7.ts#Aj27.m85"]
  cg144["d6/f7.ts#Aj27.m86"]
  cg145["d6/f7.ts#Aj27.m83"]
  cg146["d6/f7.ts#Aj27.m87"]
  cg147["d6/f7.ts#Aj27.m88"]
  cg148["d6/f7.ts#Aj27.m89"]
  cg149["d6/f7.ts#Aj27.m90"]
  cg150["d6/f8.ts#Lw28.m93"]
  cg151["d6/f8.ts#Lw28.m95"]
  cg152["d6/f8.ts#Lw28.m94"]
  cg153["d6/f8.ts#Lw28.m96"]
  cg154["d7/f31.ts#Ga112.m280"]
  cg155["d7/f31.ts#Ga112.m281"]
  cg156["d7/f31.ts#Ga112.m282"]
  cg157["d7/f31.ts#Ga112.m283"]
  cg158["d7/f31.ts#Ga112.m287"]
  cg159["d7/f31.ts#Ga112.m285"]
  cg160["d7/f31.ts#Ga112.m284"]
  cg161["d7/f31.ts#Ga112.m286"]
  cg162["d7/f33.ts#Nj114.m289"]
  cg163["d7/f35.ts#Tw116.constructor"]
  cg164["d7/f33.ts#Nj114.m290"]
  cg165["d7/f33.ts#Nj114.m291"]
  cg166["d7/f33.ts#Nj114.m293"]
  cg167["d7/f33.ts#Nj114.m300"]
  cg168["d7/f33.ts#Nj114.m292"]
  cg169["d7/f33.ts#Nj114.m294"]
  cg170["d7/f33.ts#Nj114.m295"]
  cg171["d7/f33.ts#Nj114.m296"]
  cg172["d7/f33.ts#Nj114.m298"]
  cg173["d7/f33.ts#Nj114.m297"]
  cg174["d7/f33.ts#Nj114.m299"]
  cg175["d7/f34.ts#Zf115.m289"]
  cg176["d7/f34.ts#Zf115.m301"]
  cg177["d7/f34.ts#Zf115.m293"]
  cg178["d7/f36.ts#Qz117.m289"]
  cg179["d7/f36.ts#Qz117.m302"]
  cg180["d7/f38.ts#Tr119.m289"]
  cg181["d7/f38.ts#Tr119.m303"]
  cg182["d7/f38.ts#Tr119.m293"]
  cg183["d7/f38.ts#Tr119.m304"]
  cg184["d7/f38.ts#Tr119.m292"]
  cg185["d7/f38.ts#Tr119.m305"]
  cg186["d7/f38.ts#Tr119.m306"]
  cg187["d7/f38.ts#Tr119.m297"]
  cg188["d7/f39.ts#Rh120.m307"]
  cg189["d7/f39.ts#Rh120.m310"]
  cg190["d7/f39.ts#Rh120.m313"]
  cg191["d7/f39.ts#Rh120.m314"]
  cg192["d7/f39.ts#Rh120.m308"]
  cg193["d7/f39.ts#Rh120.m309"]
  cg194["d7/f39.ts#Rh120.m315"]
  cg195["d7/f40.ts#Qu126.m67"]
  cg196["d7/f40.ts#Qu126.m342"]
  cg197["d7/f40.ts#Qu126.m339"]
  cg198["d7/f40.ts#Qu126.m340"]
  cg199["d7/f40.ts#Qu126.m338"]
  cg200["d7/f41.ts#Sq127.m344"]
  cg201["d7/f43.ts#Xd131.constructor"]
  cg202["d7/f43.ts#Xd131.m66"]
  cg203["d7/f40.ts#Qu126.m341"]
  cg204["d7/f42.ts#Wp129"]
  cg205["d7/f42.ts#Vk128"]
  cg206["d7/f42.ts#Ac130.m289"]
  cg207["d7/f42.ts#Ac130.m346"]
  cg208["d7/f42.ts#Ac130.m347"]
  cg209["d7/f42.ts#Ac130.m348"]
  cg210["d7/f42.ts#Ac130.m349"]
  cg211["d7/f42.ts#Ac130.m350"]
  cg212["d7/f42.ts#Ac130.m351"]
  cg213["d7/f42.ts#Ac130.m352"]
  cg214["d7/f42.ts#Ac130.m349.v1355"]
  cg215["d7/f42.ts#Ac130.m353"]
  cg216["d7/f33.ts#Nj114.constructor"]
  cg217["d7/f38.ts#Tr119.constructor"]
  cg218["d7/f34.ts#Zf115.constructor"]
  cg219["d7/f42.ts#Ac130.constructor"]
  cg220["d7/f36.ts#Qz117.constructor"]
  cg221["d7/f43.ts#Xd131.m359"]
  cg222["d7/f43.ts#Xd131.m360"]
  cg223["d7/f43.ts#Xd131.m65"]
  cg224["d7/f43.ts#Xd131.m361"]
  cg225["d7/f43.ts#Xd131.m341"]
  cg0 -->|call| cg1
  cg2 -->|call viaInterface| cg3
  cg2 -->|call viaInterface| cg4
  cg2 -->|call| cg5
  cg2 -->|call| cg6
  cg2 -->|call viaInterface| cg7
  cg2 -->|call viaInterface| cg8
  cg2 -->|call viaInterface| cg3
  cg2 -->|call viaInterface| cg4
  cg2 -->|call| cg9
  cg2 -->|call| cg10
  cg2 -->|call| cg11
  cg2 -->|call viaInterface| cg7
  cg2 -->|call viaInterface| cg8
  cg2 -->|call viaInterface| cg7
  cg2 -->|call viaInterface| cg8
  cg2 -->|call viaInterface| cg3
  cg2 -->|call viaInterface| cg4
  cg2 -->|call| cg12
  cg2 -->|call| cg13
  cg2 -->|call viaInterface| cg14
  cg2 -->|call viaInterface| cg15
  cg2 -->|call| cg16
  cg2 -->|call viaInterface| cg3
  cg2 -->|call viaInterface| cg4
  cg2 -->|call| cg17
  cg2 -->|call| cg18
  cg2 -->|call| cg19
  cg2 -->|call| cg13
  cg2 -->|call viaInterface| cg7
  cg2 -->|call viaInterface| cg8
  cg2 -->|call viaInterface| cg14
  cg2 -->|call viaInterface| cg15
  cg2 -->|call viaInterface| cg7
  cg2 -->|call viaInterface| cg8
  cg2 -->|call viaInterface| cg14
  cg2 -->|call viaInterface| cg15
  cg20 -->|call| cg1
  cg20 -->|call viaInterface| cg3
  cg20 -->|call viaInterface| cg4
  cg20 -->|call| cg21
  cg20 -->|call| cg22
  cg20 -->|call viaInterface| cg7
  cg20 -->|call viaInterface| cg8
  cg20 -->|call viaInterface| cg14
  cg20 -->|call viaInterface| cg15
  cg23 -->|call viaInterface| cg3
  cg23 -->|call viaInterface| cg4
  cg23 -->|call| cg2
  cg23 -->|call viaInterface| cg7
  cg23 -->|call viaInterface| cg8
  cg23 -->|call viaInterface| cg3
  cg23 -->|call viaInterface| cg4
  cg23 -->|reference| cg24
  cg23 -->|call| cg25
  cg23 -->|call viaInterface| cg7
  cg23 -->|call viaInterface| cg8
  cg23 -->|call viaInterface| cg14
  cg23 -->|call viaInterface| cg15
  cg25 -->|call| cg21
  cg25 -->|call| cg22
  cg26 -->|call| cg27
  cg28 -->|call| cg29
  cg28 -->|call| cg26
  cg28 -->|call| cg26
  cg28 -->|call| cg26
  cg30 -->|call| cg31
  cg30 -->|call| cg32
  cg33 -->|call| cg31
  cg33 -->|call| cg32
  cg33 -->|call| cg34
  cg33 -->|call| cg28
  cg35 -->|call| cg36
  cg35 -->|call| cg36
  cg35 -->|call| cg36
  cg35 -->|call| cg36
  cg9 -->|call| cg37
  cg11 -->|call| cg35
  cg11 -->|call| cg38
  cg11 -->|call| cg39
  cg11 -->|call| cg40
  cg11 -->|call| cg41
  cg11 -->|call| cg42
  cg11 -->|call| cg43
  cg38 -->|call| cg44
  cg38 -->|call| cg45
  cg38 -->|call| cg46
  cg38 -->|call| cg47
  cg38 -->|call| cg48
  cg38 -->|call| cg47
  cg38 -->|call| cg49
  cg45 -->|call| cg44
  cg45 -->|call| cg38
  cg45 -->|call| cg50
  cg45 -->|call| cg51
  cg52 -->|call| cg47
  cg45 -->|call| cg47
  cg45 -->|call| cg48
  cg45 -->|call| cg48
  cg40 -->|call| cg46
  cg40 -->|call| cg53
  cg40 -->|call| cg54
  cg40 -->|call| cg47
  cg40 -->|call| cg55
  cg40 -->|call| cg56
  cg40 -->|call| cg54
  cg40 -->|call| cg55
  cg40 -->|call| cg56
  cg40 -->|call| cg47
  cg40 -->|call| cg48
  cg40 -->|call| cg57
  cg39 -->|call| cg46
  cg39 -->|call| cg54
  cg39 -->|call| cg47
  cg39 -->|call| cg54
  cg39 -->|call| cg53
  cg39 -->|call| cg55
  cg39 -->|call| cg56
  cg39 -->|call| cg47
  cg39 -->|call| cg48
  cg39 -->|call| cg57
  cg54 -->|call| cg47
  cg54 -->|call| cg48
  cg54 -->|call| cg58
  cg54 -->|call| cg59
  cg59 -->|call| cg60
  cg59 -->|call| cg61
  cg59 -->|call| cg61
  cg59 -->|call| cg61
  cg62 -->|call| cg47
  cg62 -->|call| cg48
  cg49 -->|call| cg53
  cg49 -->|call| cg55
  cg49 -->|call| cg56
  cg61 -->|call| cg63
  cg10 -->|call| cg46
  cg10 -->|call| cg11
  cg10 -->|call| cg47
  cg10 -->|call| cg54
  cg10 -->|call| cg53
  cg10 -->|call| cg55
  cg10 -->|call| cg56
  cg10 -->|call| cg47
  cg10 -->|call| cg48
  cg10 -->|call| cg57
  cg10 -->|call| cg43
  cg6 -->|call| cg64
  cg6 -->|call| cg65
  cg6 -->|call| cg66
  cg6 -->|call| cg67
  cg6 -->|call| cg68
  cg65 -->|call| cg69
  cg65 -->|call| cg70
  cg65 -->|call| cg71
  cg72 -->|call| cg73
  cg72 -->|call| cg74
  cg75 -->|call| cg76
  cg75 -->|call| cg77
  cg75 -->|call| cg78
  cg79 -->|call| cg75
  cg78 -->|call| cg75
  cg80 -->|call| cg81
  cg82 -->|call| cg72
  cg83 -->|call| cg82
  cg84 -->|call| cg85
  cg84 -->|call| cg86
  cg87 -->|call| cg85
  cg87 -->|call| cg86
  cg88 -->|call| cg84
  cg88 -->|call| cg89
  cg89 -->|call| cg90
  cg22 -->|call| cg84
  cg22 -->|call| cg73
  cg22 -->|call| cg89
  cg91 -->|call| cg85
  cg92 -->|call| cg93
  cg92 -->|call| cg93
  cg92 -->|call| cg94
  cg92 -->|call| cg94
  cg92 -->|call| cg94
  cg92 -->|call| cg94
  cg95 -->|call| cg96
  cg97 -->|call| cg98
  cg97 -->|call| cg98
  cg99 -->|call| cg100
  cg99 -->|call| cg101
  cg99 -->|call| cg99
  cg99 -->|call| cg99
  cg102 -->|call| cg97
  cg102 -->|call| cg95
  cg102 -->|call| cg100
  cg102 -->|call| cg101
  cg102 -->|call| cg99
  cg102 -->|call| cg100
  cg102 -->|call| cg99
  cg102 -->|call| cg101
  cg102 -->|call| cg101
  cg102 -->|call| cg101
  cg102 -->|call| cg103
  cg102 -->|call| cg101
  cg102 -->|call| cg101
  cg102 -->|call| cg103
  cg12 -->|call| cg104
  cg12 -->|call| cg105
  cg12 -->|call| cg106
  cg12 -->|call| cg107
  cg108 -->|call| cg109
  cg108 -->|call| cg110
  cg108 -->|call| cg111
  cg108 -->|call| cg112
  cg108 -->|call| cg113
  cg13 -->|call| cg109
  cg13 -->|call| cg110
  cg13 -->|call| cg111
  cg13 -->|call| cg112
  cg13 -->|call| cg113
  cg109 -->|call| cg114
  cg109 -->|call| cg115
  cg109 -->|call| cg116
  cg116 -->|call| cg117
  cg112 -->|call| cg118
  cg112 -->|call| cg119
  cg112 -->|call| cg120
  cg118 -->|call| cg121
  cg118 -->|call| cg122
  cg118 -->|call| cg123
  cg118 -->|call| cg124
  cg121 -->|call| cg125
  cg121 -->|call| cg126
  cg122 -->|call| cg127
  cg122 -->|call| cg128
  cg122 -->|call| cg128
  cg122 -->|call| cg127
  cg122 -->|call| cg127
  cg111 -->|call| cg129
  cg111 -->|call| cg130
  cg111 -->|call| cg131
  cg130 -->|call| cg132
  cg110 -->|call| cg133
  cg110 -->|call| cg134
  cg110 -->|call| cg135
  cg110 -->|call| cg136
  cg133 -->|call| cg137
  cg19 -->|call| cg138
  cg19 -->|call| cg139
  cg19 -->|call| cg140
  cg19 -->|call| cg141
  cg19 -->|call| cg142
  cg19 -->|call| cg143
  cg19 -->|call| cg109
  cg19 -->|call| cg144
  cg19 -->|call| cg109
  cg141 -->|call| cg145
  cg144 -->|call| cg146
  cg144 -->|call| cg147
  cg144 -->|call| cg148
  cg149 -->|call| cg138
  cg149 -->|call| cg139
  cg149 -->|call| cg140
  cg149 -->|call| cg141
  cg149 -->|call| cg142
  cg149 -->|call| cg143
  cg149 -->|call| cg109
  cg41 -->|call| cg150
  cg41 -->|call| cg151
  cg41 -->|call| cg152
  cg41 -->|call| cg153
  cg154 -->|call| cg155
  cg154 -->|call| cg156
  cg156 -->|call| cg157
  cg156 -->|call| cg158
  cg156 -->|call| cg159
  cg157 -->|call| cg159
  cg160 -->|call| cg161
  cg160 -->|call| cg161
  cg159 -->|call| cg160
  cg158 -->|call| cg159
  cg162 -->|call| cg163
  cg162 -->|call| cg164
  cg164 -->|call| cg165
  cg164 -->|call| cg166
  cg164 -->|call| cg167
  cg164 -->|call| cg168
  cg166 -->|call| cg169
  cg166 -->|call| cg170
  cg166 -->|call| cg171
  cg169 -->|call| cg172
  cg169 -->|call| cg167
  cg170 -->|call| cg172
  cg170 -->|call| cg173
  cg170 -->|call| cg167
  cg171 -->|call| cg174
  cg171 -->|call| cg173
  cg175 -->|call| cg163
  cg175 -->|call| cg176
  cg176 -->|call| cg177
  cg178 -->|call| cg179
  cg178 -->|call| cg179
  cg180 -->|call| cg163
  cg180 -->|call| cg181
  cg181 -->|call| cg182
  cg181 -->|call| cg183
  cg181 -->|call| cg184
  cg182 -->|call| cg185
  cg182 -->|call| cg186
  cg186 -->|call| cg187
  cg188 -->|call| cg189
  cg188 -->|call| cg190
  cg188 -->|call| cg191
  cg188 -->|call| cg192
  cg188 -->|call| cg193
  cg189 -->|call| cg194
  cg189 -->|call| cg194
  cg195 -->|call| cg196
  cg195 -->|call| cg197
  cg195 -->|call| cg196
  cg195 -->|call| cg198
  cg199 -->|call| cg195
  cg197 -->|call| cg196
  cg197 -->|call| cg200
  cg197 -->|call| cg201
  cg197 -->|call| cg202
  cg197 -->|call| cg201
  cg197 -->|call| cg202
  cg198 -->|call| cg196
  cg198 -->|call| cg203
  cg204 -->|call| cg205
  cg206 -->|call| cg207
  cg207 -->|call| cg204
  cg207 -->|call| cg208
  cg207 -->|call| cg209
  cg207 -->|call| cg210
  cg208 -->|call| cg211
  cg208 -->|call| cg211
  cg208 -->|call| cg212
  cg208 -->|call| cg213
  cg208 -->|call| cg211
  cg208 -->|call| cg212
  cg208 -->|call| cg213
  cg208 -->|call| cg211
  cg208 -->|call| cg212
  cg208 -->|call| cg213
  cg208 -->|call| cg211
  cg208 -->|call| cg212
  cg208 -->|call| cg213
  cg208 -->|call| cg211
  cg209 -->|call| cg211
  cg209 -->|call| cg212
  cg209 -->|call| cg213
  cg209 -->|call| cg211
  cg210 -->|call| cg205
  cg214 -->|call| cg211
  cg212 -->|call| cg212
  cg212 -->|call| cg212
  cg212 -->|call| cg212
  cg212 -->|call| cg215
  cg213 -->|call| cg215
  cg201 -->|call| cg216
  cg201 -->|call| cg217
  cg201 -->|call| cg218
  cg201 -->|call| cg219
  cg201 -->|call| cg220
  cg202 -->|call| cg221
  cg202 -->|call| cg181
  cg202 -->|call| cg176
  cg202 -->|call| cg178
  cg202 -->|call| cg207
  cg202 -->|call| cg222
  cg223 -->|call| cg221
  cg223 -->|call| cg181
  cg223 -->|call| cg176
  cg223 -->|call| cg178
  cg223 -->|call| cg221
  cg223 -->|call| cg207
  cg223 -->|call| cg224
  cg223 -->|call| cg225
%% ARCHGUARD-CALLGRAPH-APPENDIX v1 END
